<?xml version="1.0" encoding="UTF-8"?>
<svg id="Camada_2" data-name="Camada 2" xmlns="http://www.w3.org/2000/svg" viewBox="0 0 205.13 205.13">
  <defs>
    <style>
      .cls-1 {
        fill: #fff;
      }

      .cls-2 {
        fill: #17a06a;
      }
    </style>
  </defs>
  <g id="Camada_1-2" data-name="Camada 1">
    <g>
      <rect class="cls-2" width="205.13" height="205.13" rx="36.76" ry="36.76"/>
      <g>
        <path class="cls-1" d="M52.75,64.64v60.67c7.33,3.11,12.3,10.69,11.49,19.33-.82,8.85-7.91,16.08-16.74,17.07-11.49,1.28-21.21-7.68-21.21-18.9,0-7.87,4.77-14.61,11.58-17.5V53.79c0-5.8,4.7-10.49,10.49-10.49h0c2.78,0,5.45,1.11,7.42,3.07l42.72,42.72c2.94,2.94,2.94,7.71,0,10.65h0c-2.94,2.94-7.71,2.94-10.65,0l-35.1-35.11Z"/>
        <path class="cls-1" d="M152.38,140.49v-60.67c-7.33-3.11-12.3-10.69-11.49-19.33.82-8.85,7.91-16.08,16.74-17.07,11.49-1.28,21.21,7.68,21.21,18.9,0,7.87-4.77,14.61-11.58,17.5v71.52c0,5.8-4.7,10.49-10.49,10.49h0c-2.78,0-5.45-1.11-7.42-3.07l-42.72-42.72c-2.94-2.94-2.94-7.71,0-10.65h0c2.94-2.94,7.71-2.94,10.65,0l35.1,35.11Z"/>
      </g>
    </g>
  </g>
</svg>