<?xml version="1.0" encoding="UTF-8"?>
<svg id="Camada_2" data-name="Camada 2" xmlns="http://www.w3.org/2000/svg" viewBox="0 0 205.13 205.13">
  <defs>
    <style>
      .cls-1 {
        fill: #17a06a;
      }
    </style>
  </defs>
  <g id="Camada_1-2" data-name="Camada 1">
    <path class="cls-1" d="M168.37,0H36.76C16.46,0,0,16.46,0,36.76v131.61c0,20.3,16.46,36.76,36.76,36.76h131.61c20.3,0,36.76-16.46,36.76-36.76V36.76c0-20.3-16.46-36.76-36.76-36.76ZM98.5,99.74c-2.94,2.94-7.71,2.94-10.65,0l-35.1-35.11v60.67c7.33,3.11,12.3,10.69,11.49,19.33-.82,8.85-7.91,16.08-16.74,17.07-11.49,1.28-21.21-7.68-21.21-18.9,0-7.87,4.77-14.61,11.58-17.5V53.79c0-5.8,4.7-10.49,10.49-10.49,2.78,0,5.45,1.11,7.42,3.07l42.72,42.72c2.94,2.94,2.94,7.71,0,10.65ZM167.26,79.82v71.52c0,5.8-4.7,10.49-10.49,10.49-2.78,0-5.45-1.11-7.42-3.07l-42.72-42.72c-2.94-2.94-2.94-7.71,0-10.65s7.71-2.94,10.65,0l35.1,35.11v-60.67c-7.33-3.11-12.3-10.69-11.49-19.33.82-8.85,7.91-16.08,16.74-17.07,11.49-1.28,21.21,7.68,21.21,18.9,0,7.87-4.77,14.61-11.58,17.5Z"/>
  </g>
</svg>