<?xml version="1.0" encoding="UTF-8"?>
<svg id="Camada_2" data-name="Camada 2" xmlns="http://www.w3.org/2000/svg" viewBox="0 0 545.77 205.13">
  <defs>
    <style>
      .cls-1 {
        fill: #1e2532;
      }

      .cls-2 {
        fill: #fff;
      }

      .cls-3 {
        fill: #17a06a;
      }
    </style>
  </defs>
  <g id="Camada_1-2" data-name="Camada 1">
    <g>
      <g>
        <rect class="cls-3" x="0" width="205.13" height="205.13" rx="36.76" ry="36.76"/>
        <g>
          <path class="cls-2" d="M52.75,64.64v60.67c7.33,3.11,12.3,10.69,11.49,19.33-.82,8.85-7.91,16.08-16.74,17.07-11.49,1.28-21.21-7.68-21.21-18.9,0-7.87,4.77-14.61,11.58-17.5V53.79c0-5.8,4.7-10.49,10.49-10.49h0c2.78,0,5.45,1.11,7.42,3.07l42.72,42.72c2.94,2.94,2.94,7.71,0,10.65h0c-2.94,2.94-7.71,2.94-10.65,0l-35.1-35.11Z"/>
          <path class="cls-2" d="M152.38,140.49v-60.67c-7.33-3.11-12.3-10.69-11.49-19.33.82-8.85,7.91-16.08,16.74-17.07,11.49-1.28,21.21,7.68,21.21,18.9,0,7.87-4.77,14.61-11.58,17.5v71.52c0,5.8-4.7,10.49-10.49,10.49h0c-2.78,0-5.45-1.11-7.42-3.07l-42.72-42.72c-2.94-2.94-2.94-7.71,0-10.65h0c2.94-2.94,7.71-2.94,10.65,0l35.1,35.11Z"/>
        </g>
      </g>
      <g>
        <path class="cls-1" d="M234.07,147.67V56.42h17.47l53.84,65.7h-8.47V56.42h20.86v91.25h-17.34l-53.97-65.7h8.47v65.7h-20.86Z"/>
        <path class="cls-1" d="M366.13,148.71c-8,0-15.01-1.56-21.05-4.69-6.04-3.13-10.71-7.41-14.01-12.84-3.3-5.43-4.95-11.62-4.95-18.58s1.63-13.27,4.89-18.71c3.26-5.43,7.71-9.69,13.36-12.78,5.65-3.08,12.04-4.63,19.16-4.63s13.06,1.46,18.58,4.37c5.52,2.91,9.89,7.08,13.1,12.52,3.21,5.43,4.82,11.93,4.82,19.49,0,.78-.04,1.67-.13,2.67-.09,1-.17,1.93-.26,2.8h-56.97v-11.86h46.28l-7.82,3.52c0-3.65-.74-6.82-2.22-9.52-1.48-2.69-3.52-4.8-6.13-6.32-2.61-1.52-5.65-2.28-9.13-2.28s-6.54.76-9.19,2.28c-2.65,1.52-4.72,3.65-6.19,6.39-1.48,2.74-2.22,5.98-2.22,9.71v3.13c0,3.83.85,7.19,2.54,10.1,1.69,2.91,4.08,5.13,7.17,6.65,3.08,1.52,6.71,2.28,10.89,2.28,3.74,0,7.02-.56,9.84-1.69,2.82-1.13,5.41-2.82,7.76-5.08l10.82,11.73c-3.22,3.65-7.26,6.45-12.12,8.41-4.87,1.96-10.47,2.93-16.82,2.93Z"/>
        <path class="cls-1" d="M396.11,147.67l31.42-41.2-.39,11.21-30.11-40.15h22.81l19.03,26.2-8.6.26,19.69-26.46h21.64l-30.24,39.76v-10.95l31.29,41.33h-23.07l-19.95-27.9,8.47,1.17-19.82,26.72h-22.16Z"/>
        <path class="cls-1" d="M507.31,148.71c-7.48,0-14.1-1.56-19.88-4.69-5.78-3.13-10.34-7.41-13.69-12.84-3.35-5.43-5.02-11.62-5.02-18.58s1.67-13.27,5.02-18.71c3.34-5.43,7.91-9.69,13.69-12.78,5.78-3.08,12.4-4.63,19.88-4.63s13.99,1.54,19.82,4.63c5.82,3.09,10.38,7.32,13.69,12.71,3.3,5.39,4.95,11.65,4.95,18.77s-1.65,13.15-4.95,18.58c-3.3,5.43-7.87,9.71-13.69,12.84-5.82,3.13-12.43,4.69-19.82,4.69ZM507.31,132.03c3.39,0,6.43-.78,9.13-2.35,2.69-1.56,4.82-3.8,6.39-6.71,1.56-2.91,2.35-6.37,2.35-10.36s-.78-7.56-2.35-10.43c-1.56-2.87-3.7-5.08-6.39-6.65-2.69-1.56-5.74-2.35-9.13-2.35s-6.43.78-9.13,2.35c-2.69,1.56-4.85,3.78-6.45,6.65-1.61,2.87-2.41,6.35-2.41,10.43s.8,7.45,2.41,10.36c1.61,2.91,3.76,5.15,6.45,6.71,2.69,1.56,5.74,2.35,9.13,2.35Z"/>
      </g>
      <g>
        <path class="cls-3" d="M446.05,189.71v-31.73h13.74c2.84,0,5.29.46,7.34,1.38,2.05.92,3.64,2.24,4.76,3.97,1.12,1.72,1.68,3.78,1.68,6.17s-.56,4.4-1.68,6.12c-1.12,1.72-2.71,3.05-4.76,3.97-2.06.92-4.5,1.38-7.34,1.38h-9.66l3.26-3.31v12.06h-7.34ZM453.39,178.46l-3.26-3.49h9.25c2.27,0,3.96-.48,5.08-1.45,1.12-.97,1.68-2.31,1.68-4.03s-.56-3.11-1.68-4.08c-1.12-.97-2.81-1.45-5.08-1.45h-9.25l3.26-3.49v18Z"/>
        <path class="cls-3" d="M476.46,189.71v-31.73h14.42c3.45,0,6.48.66,9.11,1.97,2.63,1.32,4.68,3.15,6.17,5.51,1.48,2.36,2.22,5.15,2.22,8.39s-.74,5.99-2.22,8.36c-1.48,2.37-3.54,4.22-6.17,5.53-2.63,1.32-5.67,1.97-9.11,1.97h-14.42ZM483.81,183.68h6.71c2.12,0,3.95-.4,5.51-1.2,1.56-.8,2.77-1.94,3.63-3.42.86-1.48,1.29-3.22,1.29-5.21s-.43-3.77-1.29-5.24c-.86-1.47-2.07-2.6-3.63-3.4-1.56-.8-3.39-1.2-5.51-1.2h-6.71v19.67Z"/>
        <path class="cls-3" d="M520.08,189.71l-13.69-31.73h7.93l11.97,28.11h-4.67l12.15-28.11h7.3l-13.74,31.73h-7.25Z"/>
      </g>
    </g>
  </g>
</svg>